# xmcd
#
# Track frame offsets: 
#        150
#        14506
#        30752
#        47646
#        63253
#        78407
#        92734
#        108504
#        121992
#        138986
#        151217
#        164268
#        181642
#        198490
#        211746
#        233194
#        247558
#
# Disc length: 3586 seconds
#
# Revision: 0
# Processed by: cddbd v1.5.2PL0 Copyright (c) Steve Scherf et al.
# Submitted via: ExactAudioCopy v0.99pb4
#
DISCID=c80e0011
DTITLE=Mountain Sprout - Fambilly Hour
DYEAR=2008
DGENRE=Bluegrass
TTITLE0=Sittin' On Top of the World
TTITLE1=Cripple Creek
TTITLE2=Sunnyside Of the  Mountain
TTITLE3=Mountain Dew
TTITLE4=Fox on the Run
TTITLE5=Black eyed Suzie
TTITLE6=New River Train
TTITLE7=Chicken Reel
TTITLE8=Salty Dog Blues
TTITLE9=How Mountain Girls Can Love
TTITLE10=Cindy
TTITLE11=Dark Hollow
TTITLE12=Little Maggie
TTITLE13=Cotton Eyed Joe
TTITLE14=Freeborn Man
TTITLE15=Rocky Top
TTITLE16=900 Miles
EXTD=
EXTT0=
EXTT1=
EXTT2=
EXTT3=
EXTT4=
EXTT5=
EXTT6=
EXTT7=
EXTT8=
EXTT9=
EXTT10=
EXTT11=
EXTT12=
EXTT13=
EXTT14=
EXTT15=
EXTT16=
PLAYORDER=
